<svg width="40" height="40" viewBox="0 0 40 40" fill="none" xmlns="http://www.w3.org/2000/svg">
<path d="M5 28.7503V35.0003H11.25L29.6833 16.5669L23.4333 10.3169L5 28.7503ZM34.5167 11.7336C35.1667 11.0836 35.1667 10.0336 34.5167 9.3836L30.6167 5.48359C29.9667 4.83359 28.9167 4.83359 28.2667 5.48359L25.2167 8.5336L31.4667 14.7836L34.5167 11.7336Z" fill="#6600B6"/>
<path d="M5 28.7503V35.0003H11.25L29.6833 16.5669L23.4333 10.3169L5 28.7503ZM34.5167 11.7336C35.1667 11.0836 35.1667 10.0336 34.5167 9.3836L30.6167 5.48359C29.9667 4.83359 28.9167 4.83359 28.2667 5.48359L25.2167 8.5336L31.4667 14.7836L34.5167 11.7336Z" fill="url(#paint0_linear)"/>
<defs>
<linearGradient id="paint0_linear" x1="35" y1="5.00024" x2="5" y2="35.0002" gradientUnits="userSpaceOnUse">
<stop stop-color="#0223CF"/>
<stop offset="1" stop-color="white" stop-opacity="0"/>
</linearGradient>
</defs>
</svg>
