<svg width="51" height="51" viewBox="0 0 51 51" fill="none" xmlns="http://www.w3.org/2000/svg">
<path d="M25.4788 4.25C13.7487 4.25 4.25 13.77 4.25 25.5C4.25 37.23 13.7487 46.75 25.4788 46.75C37.23 46.75 46.75 37.23 46.75 25.5C46.75 13.77 37.23 4.25 25.4788 4.25ZM40.205 17H33.9363C33.2563 14.3438 32.2787 11.7938 31.0037 9.435C34.9137 10.7738 38.165 13.4937 40.205 17ZM25.5 8.585C27.2638 11.135 28.645 13.9613 29.5588 17H21.4412C22.355 13.9613 23.7362 11.135 25.5 8.585ZM9.0525 29.75C8.7125 28.39 8.5 26.9662 8.5 25.5C8.5 24.0338 8.7125 22.61 9.0525 21.25H16.235C16.065 22.6525 15.9375 24.055 15.9375 25.5C15.9375 26.945 16.065 28.3475 16.235 29.75H9.0525ZM10.795 34H17.0637C17.7437 36.6562 18.7212 39.2062 19.9963 41.565C16.0862 40.2262 12.835 37.5275 10.795 34ZM17.0637 17H10.795C12.835 13.4725 16.0862 10.7738 19.9963 9.435C18.7212 11.7938 17.7437 14.3438 17.0637 17ZM25.5 42.415C23.7362 39.865 22.355 37.0387 21.4412 34H29.5588C28.645 37.0387 27.2638 39.865 25.5 42.415ZM30.4725 29.75H20.5275C20.3363 28.3475 20.1875 26.945 20.1875 25.5C20.1875 24.055 20.3363 22.6313 20.5275 21.25H30.4725C30.6637 22.6313 30.8125 24.055 30.8125 25.5C30.8125 26.945 30.6637 28.3475 30.4725 29.75ZM31.0037 41.565C32.2787 39.2062 33.2563 36.6562 33.9363 34H40.205C38.165 37.5062 34.9137 40.2262 31.0037 41.565ZM34.765 29.75C34.935 28.3475 35.0625 26.945 35.0625 25.5C35.0625 24.055 34.935 22.6525 34.765 21.25H41.9475C42.2875 22.61 42.5 24.0338 42.5 25.5C42.5 26.9662 42.2875 28.39 41.9475 29.75H34.765Z" fill="#6600B6"/>
<path d="M25.4788 4.25C13.7487 4.25 4.25 13.77 4.25 25.5C4.25 37.23 13.7487 46.75 25.4788 46.75C37.23 46.75 46.75 37.23 46.75 25.5C46.75 13.77 37.23 4.25 25.4788 4.25ZM40.205 17H33.9363C33.2563 14.3438 32.2787 11.7938 31.0037 9.435C34.9137 10.7738 38.165 13.4937 40.205 17ZM25.5 8.585C27.2638 11.135 28.645 13.9613 29.5588 17H21.4412C22.355 13.9613 23.7362 11.135 25.5 8.585ZM9.0525 29.75C8.7125 28.39 8.5 26.9662 8.5 25.5C8.5 24.0338 8.7125 22.61 9.0525 21.25H16.235C16.065 22.6525 15.9375 24.055 15.9375 25.5C15.9375 26.945 16.065 28.3475 16.235 29.75H9.0525ZM10.795 34H17.0637C17.7437 36.6562 18.7212 39.2062 19.9963 41.565C16.0862 40.2262 12.835 37.5275 10.795 34ZM17.0637 17H10.795C12.835 13.4725 16.0862 10.7738 19.9963 9.435C18.7212 11.7938 17.7437 14.3438 17.0637 17ZM25.5 42.415C23.7362 39.865 22.355 37.0387 21.4412 34H29.5588C28.645 37.0387 27.2638 39.865 25.5 42.415ZM30.4725 29.75H20.5275C20.3363 28.3475 20.1875 26.945 20.1875 25.5C20.1875 24.055 20.3363 22.6313 20.5275 21.25H30.4725C30.6637 22.6313 30.8125 24.055 30.8125 25.5C30.8125 26.945 30.6637 28.3475 30.4725 29.75ZM31.0037 41.565C32.2787 39.2062 33.2563 36.6562 33.9363 34H40.205C38.165 37.5062 34.9137 40.2262 31.0037 41.565ZM34.765 29.75C34.935 28.3475 35.0625 26.945 35.0625 25.5C35.0625 24.055 34.935 22.6525 34.765 21.25H41.9475C42.2875 22.61 42.5 24.0338 42.5 25.5C42.5 26.9662 42.2875 28.39 41.9475 29.75H34.765Z" fill="url(#paint0_linear)"/>
<defs>
<linearGradient id="paint0_linear" x1="4" y1="4" x2="47" y2="47" gradientUnits="userSpaceOnUse">
<stop stop-color="#0223CF"/>
<stop offset="1" stop-color="white" stop-opacity="0"/>
</linearGradient>
</defs>
</svg>
