<svg width="65" height="65" viewBox="0 0 65 65" fill="none" xmlns="http://www.w3.org/2000/svg">
<path d="M32.4999 21.6666C35.4791 21.6666 37.9166 19.2291 37.9166 16.2499C37.9166 13.2707 35.4791 10.8333 32.4999 10.8333C29.5208 10.8333 27.0833 13.2707 27.0833 16.2499C27.0833 19.2291 29.5208 21.6666 32.4999 21.6666ZM32.4999 27.0832C29.5208 27.0832 27.0833 29.5207 27.0833 32.4999C27.0833 35.4791 29.5208 37.9166 32.4999 37.9166C35.4791 37.9166 37.9166 35.4791 37.9166 32.4999C37.9166 29.5207 35.4791 27.0832 32.4999 27.0832ZM32.4999 43.3332C29.5208 43.3332 27.0833 45.7707 27.0833 48.7499C27.0833 51.729 29.5208 54.1665 32.4999 54.1665C35.4791 54.1665 37.9166 51.729 37.9166 48.7499C37.9166 45.7707 35.4791 43.3332 32.4999 43.3332Z" fill="white"/>
</svg>
