<svg width="51" height="51" viewBox="0 0 51 51" fill="none" xmlns="http://www.w3.org/2000/svg">
<path d="M27.625 6.375H23.375V27.625H27.625V6.375ZM37.8888 10.9862L34.8713 14.0038C38.2288 16.7025 40.375 20.8462 40.375 25.5C40.375 33.7237 33.7237 40.375 25.5 40.375C17.2762 40.375 10.625 33.7237 10.625 25.5C10.625 20.8462 12.7712 16.7025 16.1075 13.9825L13.1112 10.9862C8.98875 14.4925 6.375 19.6775 6.375 25.5C6.375 36.0612 14.9388 44.625 25.5 44.625C36.0612 44.625 44.625 36.0612 44.625 25.5C44.625 19.6775 42.0112 14.4925 37.8888 10.9862Z" fill="#6600B6"/>
<path d="M27.625 6.375H23.375V27.625H27.625V6.375ZM37.8888 10.9862L34.8713 14.0038C38.2288 16.7025 40.375 20.8462 40.375 25.5C40.375 33.7237 33.7237 40.375 25.5 40.375C17.2762 40.375 10.625 33.7237 10.625 25.5C10.625 20.8462 12.7712 16.7025 16.1075 13.9825L13.1112 10.9862C8.98875 14.4925 6.375 19.6775 6.375 25.5C6.375 36.0612 14.9388 44.625 25.5 44.625C36.0612 44.625 44.625 36.0612 44.625 25.5C44.625 19.6775 42.0112 14.4925 37.8888 10.9862Z" fill="url(#paint0_linear)"/>
<defs>
<linearGradient id="paint0_linear" x1="6" y1="6" x2="45" y2="45" gradientUnits="userSpaceOnUse">
<stop stop-color="#0223CF"/>
<stop offset="1" stop-color="white" stop-opacity="0"/>
</linearGradient>
</defs>
</svg>
