<svg width="60" height="60" viewBox="0 0 60 60" fill="none" xmlns="http://www.w3.org/2000/svg">
<path d="M38.75 35H36.775L36.075 34.325C38.525 31.475 40 27.775 40 23.75C40 14.775 32.725 7.5 23.75 7.5C14.775 7.5 7.5 14.775 7.5 23.75C7.5 32.725 14.775 40 23.75 40C27.775 40 31.475 38.525 34.325 36.075L35 36.775V38.75L47.5 51.225L51.225 47.5L38.75 35ZM23.75 35C17.525 35 12.5 29.975 12.5 23.75C12.5 17.525 17.525 12.5 23.75 12.5C29.975 12.5 35 17.525 35 23.75C35 29.975 29.975 35 23.75 35Z" fill="#420075"/>
</svg>
