<svg width="51" height="51" viewBox="0 0 51 51" fill="none" xmlns="http://www.w3.org/2000/svg">
<path d="M38.25 17H36.125V12.75C36.125 6.885 31.365 2.125 25.5 2.125C19.635 2.125 14.875 6.885 14.875 12.75V17H12.75C10.4125 17 8.5 18.9125 8.5 21.25V42.5C8.5 44.8375 10.4125 46.75 12.75 46.75H38.25C40.5875 46.75 42.5 44.8375 42.5 42.5V21.25C42.5 18.9125 40.5875 17 38.25 17ZM25.5 36.125C23.1625 36.125 21.25 34.2125 21.25 31.875C21.25 29.5375 23.1625 27.625 25.5 27.625C27.8375 27.625 29.75 29.5375 29.75 31.875C29.75 34.2125 27.8375 36.125 25.5 36.125ZM32.0875 17H18.9125V12.75C18.9125 9.11625 21.8663 6.1625 25.5 6.1625C29.1338 6.1625 32.0875 9.11625 32.0875 12.75V17Z" fill="#6600B6"/>
<path d="M38.25 17H36.125V12.75C36.125 6.885 31.365 2.125 25.5 2.125C19.635 2.125 14.875 6.885 14.875 12.75V17H12.75C10.4125 17 8.5 18.9125 8.5 21.25V42.5C8.5 44.8375 10.4125 46.75 12.75 46.75H38.25C40.5875 46.75 42.5 44.8375 42.5 42.5V21.25C42.5 18.9125 40.5875 17 38.25 17ZM25.5 36.125C23.1625 36.125 21.25 34.2125 21.25 31.875C21.25 29.5375 23.1625 27.625 25.5 27.625C27.8375 27.625 29.75 29.5375 29.75 31.875C29.75 34.2125 27.8375 36.125 25.5 36.125ZM32.0875 17H18.9125V12.75C18.9125 9.11625 21.8663 6.1625 25.5 6.1625C29.1338 6.1625 32.0875 9.11625 32.0875 12.75V17Z" fill="url(#paint0_linear)"/>
<defs>
<linearGradient id="paint0_linear" x1="11.5" y1="10" x2="43" y2="47" gradientUnits="userSpaceOnUse">
<stop offset="0.181632" stop-color="#0223CF"/>
<stop offset="1" stop-color="white" stop-opacity="0"/>
</linearGradient>
</defs>
</svg>
